<svg width="21" height="15" fill="none" xmlns="http://www.w3.org/2000/svg"><path fill-rule="evenodd" clip-rule="evenodd" d="M11.247.907l9.335 3.64h-.004c.127.05.235.135.31.246a.647.647 0 01-.335.981L11.218 9.01a.666.666 0 01-.443 0L2.999 6.313v3.968a.976.976 0 01-.293.695 1.01 1.01 0 01-1.415 0 .974.974 0 01-.293-.695V5.484a.888.888 0 01.042-.197.224.224 0 00-.02-.048c-.01-.022-.022-.044-.022-.07a.646.646 0 01.112-.376.665.665 0 01.31-.246l9.335-3.64a.678.678 0 01.492 0zM11 10.478l5.11-1.775h-.002a.678.678 0 01.607.084.658.658 0 01.281.535v3.274a.647.647 0 01-.123.378.665.665 0 01-.322.239l-4.001 1.389a4.775 4.775 0 01-3.105 0l-4-1.389a.665.665 0 01-.323-.239.647.647 0 01-.123-.378V9.322a.646.646 0 01.281-.535.674.674 0 01.607-.084L11 10.478z" fill="#6E41E2"/></svg>